#tb 0: 1/44100
#media_type 0: audio
#codec_id 0: pcm_s16le
#sample_rate 0: 44100
#channel_layout_name 0: stereo
0,          0,          0,     4096,    16384, 0xdcb9f637
0,       4096,       4096,     4096,    16384, 0x6673f49f
0,       8192,       8192,     4096,    16384, 0xd732e949
0,      12288,      12288,     4096,    16384, 0x76f9edad
0,      16384,      16384,     4096,    16384, 0x9082eb9d
0,      20480,      20480,     4096,    16384, 0x434feb33
0,      24576,      24576,     4096,    16384, 0x6c81f693
0,      28672,      28672,     4096,    16384, 0xbe63f421
0,      32768,      32768,     4096,    16384, 0xc3eff62f
0,      36864,      36864,     4096,    16384, 0x6673f49f
0,      40960,      40960,     4096,    16384, 0xbbb9c891
0,      45056,      45056,     4096,    16384, 0x64a9757f
0,      49152,      49152,     4096,    16384, 0x8474cac7
0,      53248,      53248,     4096,    16384, 0x7ed7fb37
0,      57344,      57344,     4096,    16384, 0x3618e0dd
0,      61440,      61440,     4096,    16384, 0x35e2f49d
0,      65536,      65536,     4096,    16384, 0x62021504
0,      69632,      69632,     4096,    16384, 0x009c00bc
0,      73728,      73728,     4096,    16384, 0xf331e963
0,      77824,      77824,     4096,    16384, 0xe628f4cd
0,      81920,      81920,     4096,    16384, 0x04dab8a7
0,      86016,      86016,     4096,    16384, 0xcf5a08aa
0,      90112,      90112,     4096,    16384, 0x30089c7d
0,      94208,      94208,     4096,    16384, 0xdcde241a
0,      98304,      98304,     4096,    16384, 0x23d0e35f
0,     102400,     102400,     4096,    16384, 0xeaf7daa9
0,     106496,     106496,     4096,    16384, 0x9fb63a32
0,     110592,     110592,     4096,    16384, 0xda412794
0,     114688,     114688,     4096,    16384, 0x6464be67
0,     118784,     118784,     4096,    16384, 0x279be6bd
0,     122880,     122880,     4096,    16384, 0xb3b332cd
0,     126976,     126976,     4096,    16384, 0x788b7dbf
0,     131072,     131072,     4096,    16384, 0x00bd02b1
0,     135168,     135168,     4096,    16384, 0xee3deea7
0,     139264,     139264,     4096,    16384, 0x6e81df58
0,     143360,     143360,     4096,    16384, 0x33a6e60a
0,     147456,     147456,     4096,    16384, 0x17e5f0c4
0,     151552,     151552,     4096,    16384, 0x65bdea08
0,     155648,     155648,     4096,    16384, 0x8cd0e88d
0,     159744,     159744,     4096,    16384, 0x3bdce531
0,     163840,     163840,     4096,    16384, 0xe104f43c
0,     167936,     167936,     4096,    16384, 0x552bee74
0,     172032,     172032,     4096,    16384, 0x4a29ea07
0,     176128,     176128,     4096,    16384, 0xbf29f4c6
0,     180224,     180224,     4096,    16384, 0xf487ed2d
0,     184320,     184320,     4096,    16384, 0x65e7e653
0,     188416,     188416,     4096,    16384, 0xff5dea45
0,     192512,     192512,     4096,    16384, 0x9c8ded0a
0,     196608,     196608,     4096,    16384, 0xe3f1f1a7
0,     200704,     200704,     4096,    16384, 0xeedcf480
0,     204800,     204800,     4096,    16384, 0x5fc1f295
0,     208896,     208896,     4096,    16384, 0xa54eeccc
0,     212992,     212992,     4096,    16384, 0xf487ed2d
0,     217088,     217088,     4096,    16384, 0x65e7e653
0,     221184,     221184,     4096,    16384, 0xff5dea45
0,     225280,     225280,     4096,    16384, 0x9c8ded0a
0,     229376,     229376,     4096,    16384, 0xe3f1f1a7
0,     233472,     233472,     4096,    16384, 0xeedcf480
0,     237568,     237568,     4096,    16384, 0x5fc1f295
0,     241664,     241664,     4096,    16384, 0xa54eeccc
0,     245760,     245760,     4096,    16384, 0xf487ed2d
0,     249856,     249856,     4096,    16384, 0x65e7e653
0,     253952,     253952,     4096,    16384, 0xff5dea45
0,     258048,     258048,     4096,    16384, 0x9c8ded0a
0,     262144,     262144,     2456,     9824, 0x703b9a13
0,     264600,     264600,     1411,     5644, 0xec737dc5
